<svg width="49" height="48" viewBox="0 0 49 48" fill="none" xmlns="http://www.w3.org/2000/svg">
<path d="M21.5353 38.8925V33.8925H7.7743C6.8543 33.8925 6.05663 33.5535 5.3813 32.8755C4.70563 32.1979 4.3678 31.3974 4.3678 30.4741V9.11955C4.3678 8.19622 4.70563 7.39571 5.3813 6.71805C6.05663 6.04005 6.8543 5.70105 7.7743 5.70105H41.5593C42.4826 5.70105 43.2831 6.04005 43.9608 6.71805C44.6388 7.39571 44.9778 8.19622 44.9778 9.11955V30.4741C44.9778 31.3974 44.6388 32.1979 43.9608 32.8755C43.2831 33.5535 42.4826 33.8925 41.5593 33.8925H27.7983V38.8925H30.3953C30.876 38.8925 31.28 39.057 31.6073 39.386C31.9346 39.715 32.0983 40.1212 32.0983 40.6045C32.0983 41.0879 31.9346 41.4911 31.6073 41.8141C31.28 42.1374 30.876 42.299 30.3953 42.299H18.9383C18.4576 42.299 18.0536 42.1345 17.7263 41.8055C17.399 41.4765 17.2353 41.0704 17.2353 40.587C17.2353 40.1037 17.399 39.7004 17.7263 39.377C18.0536 39.054 18.4576 38.8925 18.9383 38.8925H21.5353ZM7.7743 30.4741H41.5593V9.11955H7.7743V30.4741Z" fill="#02040C"/>
</svg>
